<svg id="svg" version="1.1" xmlns="http://www.w3.org/2000/svg" xmlns:xlink="http://www.w3.org/1999/xlink" width="400" height="400" viewBox="0, 0, 400,400"><g id="svgg"><path id="path0" d="M256.200 115.558 C 237.514 125.107,222.129 130.239,203.232 133.228 C 199.135 133.876,181.838 133.892,177.800 133.251 C 161.025 130.591,147.355 124.241,136.893 114.250 L 135.185 112.619 122.366 125.410 L 109.547 138.200 112.873 141.335 C 134.870 162.062,169.666 173.218,201.500 169.751 C 203.100 169.577,203.600 169.650,203.600 170.057 C 203.600 170.351,182.900 191.295,157.600 216.598 C 132.300 241.902,111.600 262.785,111.600 263.005 C 111.600 263.526,136.481 288.400,137.003 288.400 C 137.222 288.400,158.101 267.700,183.400 242.400 C 208.699 217.100,229.646 196.400,229.949 196.400 C 230.380 196.400,230.447 196.898,230.258 198.700 C 227.651 223.574,233.798 250.713,246.704 271.301 C 250.984 278.128,259.387 288.874,261.388 290.078 C 261.668 290.246,266.870 285.332,274.615 277.585 L 287.381 264.815 285.762 263.107 C 277.192 254.069,270.077 240.299,267.828 228.400 C 267.682 227.630,267.275 225.470,266.922 223.600 C 266.083 219.158,265.965 201.796,266.738 196.800 C 269.569 178.523,274.700 163.148,284.493 143.602 L 287.999 136.604 275.702 124.302 C 268.939 117.536,263.314 112.019,263.202 112.042 C 263.091 112.065,259.940 113.647,256.200 115.558 " stroke="none" fill="#040404" fill-rule="evenodd"></path><path id="path1" d="M0.000 200.000 L 0.000 400.000 200.000 400.000 L 400.000 400.000 400.000 200.000 L 400.000 0.000 200.000 0.000 L 0.000 0.000 0.000 200.000 M276.098 123.898 C 283.000 130.797,288.400 136.507,288.400 136.906 C 288.400 137.296,287.179 139.997,285.686 142.908 C 284.194 145.819,282.101 150.180,281.035 152.600 C 279.969 155.020,278.769 157.735,278.369 158.632 C 276.426 162.994,273.389 171.480,272.011 176.400 C 271.734 177.390,271.358 178.650,271.176 179.200 C 270.888 180.072,269.934 184.176,268.807 189.400 C 268.387 191.343,267.773 195.432,267.215 200.000 C 266.373 206.884,266.863 220.097,268.185 226.200 C 270.621 237.441,272.531 242.409,278.028 251.800 C 279.598 254.483,284.212 260.494,286.164 262.400 C 288.577 264.756,289.557 263.382,274.903 278.195 C 260.279 292.979,261.937 292.014,258.197 287.908 C 243.794 272.094,233.488 250.372,230.437 229.400 C 230.213 227.860,229.843 225.305,229.615 223.723 C 229.387 222.141,229.200 215.706,229.200 209.423 C 229.200 203.140,229.110 198.000,229.000 198.000 C 228.891 198.000,208.280 218.520,183.198 243.600 C 157.399 269.398,137.292 289.200,136.895 289.200 C 135.918 289.200,110.680 263.889,110.860 263.088 C 110.937 262.744,131.430 241.912,156.400 216.796 C 181.370 191.680,201.845 171.011,201.901 170.865 C 201.956 170.719,199.436 170.717,196.301 170.861 C 178.264 171.686,158.616 168.474,144.600 162.410 C 136.716 158.998,126.538 153.232,120.761 148.904 C 115.026 144.607,109.200 139.281,109.200 138.337 C 109.200 137.506,134.587 112.000,135.414 112.000 C 135.647 112.000,136.549 112.735,137.419 113.634 C 143.402 119.815,154.424 126.221,165.000 129.664 C 171.085 131.645,181.724 133.181,189.400 133.189 C 196.398 133.195,205.258 132.360,210.600 131.189 C 227.582 127.468,241.594 122.348,257.800 113.943 C 260.220 112.687,262.559 111.647,262.998 111.630 C 263.531 111.610,267.870 115.673,276.098 123.898 " stroke="none" fill="#c3fb73" fill-rule="evenodd"></path><path id="path2" d="M135.200 112.680 C 135.530 112.799,136.520 113.550,137.400 114.348 L 139.000 115.800 137.419 114.100 C 136.549 113.165,135.559 112.414,135.219 112.432 C 134.682 112.459,134.679 112.492,135.200 112.680 M195.700 133.476 C 196.085 133.576,196.715 133.576,197.100 133.476 C 197.485 133.375,197.170 133.293,196.400 133.293 C 195.630 133.293,195.315 133.375,195.700 133.476 M201.105 170.283 C 201.602 170.379,202.322 170.375,202.705 170.275 C 203.087 170.175,202.680 170.096,201.800 170.101 C 200.920 170.105,200.607 170.187,201.105 170.283 M187.715 170.696 C 188.988 170.776,190.968 170.775,192.115 170.694 C 193.262 170.614,192.220 170.549,189.800 170.550 C 187.380 170.551,186.442 170.616,187.715 170.696 M191.397 182.100 L 180.200 193.400 191.500 182.203 C 197.715 176.044,202.800 170.959,202.800 170.903 C 202.800 170.620,201.803 171.599,191.397 182.100 M229.515 198.000 C 229.612 198.660,229.760 199.200,229.845 199.200 C 229.930 199.200,230.000 198.660,230.000 198.000 C 230.000 197.340,229.851 196.800,229.669 196.800 C 229.487 196.800,229.418 197.340,229.515 198.000 M229.353 209.800 C 229.353 212.440,229.418 213.468,229.497 212.084 C 229.575 210.701,229.574 208.541,229.495 207.284 C 229.416 206.028,229.352 207.160,229.353 209.800 M123.600 276.200 C 130.527 283.130,136.285 288.800,136.395 288.800 C 136.505 288.800,130.927 283.130,124.000 276.200 C 117.073 269.270,111.315 263.600,111.205 263.600 C 111.095 263.600,116.673 269.270,123.600 276.200 " stroke="none" fill="#749642" fill-rule="evenodd"></path><path id="path3" d="M263.249 111.700 C 263.349 111.755,269.094 117.380,276.015 124.200 L 288.600 136.600 276.202 124.100 C 269.384 117.225,263.639 111.600,263.436 111.600 C 263.233 111.600,263.149 111.645,263.249 111.700 M122.045 124.817 C 114.926 131.866,109.176 137.709,109.268 137.801 C 109.360 137.894,115.187 132.216,122.215 125.185 C 129.244 118.153,135.170 112.400,135.384 112.400 C 135.598 112.400,136.679 113.255,137.786 114.300 L 139.800 116.200 137.815 114.100 C 136.723 112.945,135.641 112.000,135.410 112.000 C 135.180 112.000,129.165 117.768,122.045 124.817 M140.033 116.523 C 140.125 116.590,141.010 117.237,142.000 117.961 L 143.800 119.276 142.200 117.844 C 141.320 117.056,140.435 116.409,140.233 116.406 C 140.032 116.403,139.942 116.455,140.033 116.523 M250.000 117.800 C 248.570 118.549,247.580 119.161,247.800 119.161 C 248.020 119.161,249.370 118.549,250.800 117.800 C 252.230 117.051,253.220 116.439,253.000 116.439 C 252.780 116.439,251.430 117.051,250.000 117.800 M245.400 119.978 C 244.520 120.395,243.913 120.750,244.051 120.768 C 244.440 120.818,247.200 119.614,247.200 119.395 C 247.200 119.127,247.199 119.127,245.400 119.978 M239.600 122.400 C 237.510 123.258,235.980 123.970,236.200 123.982 C 236.732 124.012,242.895 121.571,243.380 121.139 C 243.947 120.633,243.726 120.707,239.600 122.400 M149.000 122.721 C 149.571 123.298,152.466 124.867,152.639 124.694 C 152.719 124.614,151.843 124.047,150.692 123.433 C 149.542 122.819,148.780 122.499,149.000 122.721 M232.600 125.014 C 230.985 125.754,231.951 125.755,233.654 125.016 C 234.394 124.694,234.730 124.439,234.400 124.448 C 234.070 124.457,233.260 124.712,232.600 125.014 M153.200 124.958 C 153.200 125.070,153.875 125.471,154.700 125.848 C 155.525 126.226,156.335 126.605,156.500 126.691 C 156.665 126.777,156.800 126.755,156.800 126.642 C 156.800 126.530,156.125 126.129,155.300 125.752 C 154.475 125.374,153.665 124.995,153.500 124.909 C 153.335 124.823,153.200 124.845,153.200 124.958 M157.200 126.912 C 157.200 127.150,162.982 129.448,164.400 129.774 C 165.711 130.076,164.823 129.662,161.000 128.189 C 159.460 127.596,157.975 127.021,157.700 126.913 C 157.425 126.804,157.200 126.803,157.200 126.912 M224.800 127.600 C 223.976 127.864,223.941 127.926,224.600 127.954 C 225.040 127.973,225.670 127.813,226.000 127.600 C 226.701 127.147,226.214 127.147,224.800 127.600 M217.400 129.600 C 215.860 130.003,214.906 130.347,215.280 130.366 C 216.059 130.405,220.416 129.317,220.727 129.006 C 221.037 128.696,220.470 128.798,217.400 129.600 M170.200 131.375 C 171.300 131.699,172.740 131.950,173.400 131.932 C 174.686 131.898,173.505 131.602,169.800 131.031 C 168.370 130.811,168.413 130.848,170.200 131.375 M207.505 131.883 C 208.002 131.979,208.722 131.975,209.105 131.875 C 209.487 131.775,209.080 131.696,208.200 131.701 C 207.320 131.705,207.007 131.787,207.505 131.883 M177.305 132.687 C 177.914 132.779,178.814 132.777,179.305 132.682 C 179.797 132.587,179.300 132.511,178.200 132.514 C 177.100 132.517,176.697 132.595,177.305 132.687 M201.900 132.682 C 202.395 132.778,203.205 132.778,203.700 132.682 C 204.195 132.587,203.790 132.509,202.800 132.509 C 201.810 132.509,201.405 132.587,201.900 132.682 M181.300 133.076 C 181.685 133.176,182.315 133.176,182.700 133.076 C 183.085 132.975,182.770 132.893,182.000 132.893 C 181.230 132.893,180.915 132.975,181.300 133.076 M197.107 133.090 C 197.826 133.179,198.906 133.177,199.507 133.086 C 200.108 132.995,199.520 132.922,198.200 132.924 C 196.880 132.926,196.388 133.001,197.107 133.090 M186.700 133.497 C 188.295 133.573,190.905 133.573,192.500 133.497 C 194.095 133.421,192.790 133.359,189.600 133.359 C 186.410 133.359,185.105 133.421,186.700 133.497 M109.200 138.766 C 109.200 139.126,112.354 142.198,112.494 141.974 C 112.553 141.878,111.836 141.056,110.901 140.147 C 109.965 139.238,109.200 138.616,109.200 138.766 M286.800 140.000 C 286.351 140.880,286.074 141.600,286.184 141.600 C 286.294 141.600,286.751 140.880,287.200 140.000 C 287.649 139.120,287.926 138.400,287.816 138.400 C 287.706 138.400,287.249 139.120,286.800 140.000 M284.786 143.898 C 284.268 144.944,283.779 145.935,283.698 146.100 C 283.618 146.265,283.637 146.400,283.741 146.400 C 283.992 146.400,286.028 142.295,285.860 142.127 C 285.788 142.054,285.304 142.851,284.786 143.898 M114.919 144.150 C 116.835 145.962,123.132 150.801,125.400 152.204 C 127.291 153.374,126.076 152.342,122.800 149.994 C 121.150 148.811,118.270 146.604,116.400 145.090 C 114.351 143.430,113.762 143.056,114.919 144.150 M282.065 149.417 C 281.395 150.888,281.523 151.202,282.247 149.865 C 282.586 149.240,282.788 148.654,282.696 148.563 C 282.605 148.471,282.321 148.856,282.065 149.417 M280.600 152.661 C 280.264 153.465,280.082 154.215,280.195 154.328 C 280.308 154.441,280.400 154.435,280.400 154.316 C 280.400 154.196,280.672 153.446,281.005 152.649 C 281.338 151.852,281.521 151.200,281.411 151.200 C 281.301 151.200,280.936 151.858,280.600 152.661 M127.000 153.090 C 127.220 153.300,128.120 153.876,129.000 154.370 C 129.880 154.865,130.240 154.970,129.800 154.604 C 128.906 153.861,126.372 152.491,127.000 153.090 M279.190 155.800 C 278.976 156.350,278.609 157.295,278.375 157.900 C 278.141 158.505,278.114 158.820,278.315 158.600 C 278.786 158.083,280.058 154.800,279.787 154.800 C 279.673 154.800,279.405 155.250,279.190 155.800 M138.800 159.800 C 139.350 160.114,139.980 160.372,140.200 160.372 C 140.420 160.372,140.150 160.114,139.600 159.800 C 139.050 159.486,138.420 159.228,138.200 159.228 C 137.980 159.228,138.250 159.486,138.800 159.800 M276.596 161.872 C 276.258 162.681,276.033 163.500,276.097 163.691 C 276.161 163.882,276.516 163.220,276.887 162.219 C 277.693 160.045,277.470 159.779,276.596 161.872 M274.891 166.500 C 274.210 168.384,274.304 168.894,275.026 167.230 C 275.353 166.477,275.566 165.699,275.501 165.502 C 275.435 165.305,275.160 165.754,274.891 166.500 M156.000 166.394 C 156.330 166.611,157.035 166.791,157.567 166.794 C 158.851 166.802,158.525 166.575,156.800 166.258 C 155.815 166.077,155.578 166.118,156.000 166.394 M159.200 167.194 C 159.530 167.411,160.235 167.591,160.767 167.594 C 162.051 167.602,161.725 167.375,160.000 167.058 C 159.015 166.877,158.778 166.918,159.200 167.194 M164.600 168.425 C 165.480 168.643,167.100 168.897,168.200 168.988 L 170.200 169.153 168.400 168.811 C 167.410 168.622,165.790 168.369,164.800 168.247 L 163.000 168.026 164.600 168.425 M172.905 169.887 C 173.514 169.979,174.414 169.977,174.905 169.882 C 175.397 169.787,174.900 169.711,173.800 169.714 C 172.700 169.717,172.297 169.795,172.905 169.887 M180.512 170.695 C 181.564 170.777,183.184 170.776,184.112 170.692 C 185.040 170.608,184.180 170.541,182.200 170.542 C 180.220 170.543,179.460 170.612,180.512 170.695 M195.913 170.695 C 197.076 170.776,198.876 170.776,199.913 170.693 C 200.951 170.611,200.000 170.545,197.800 170.546 C 195.600 170.547,194.751 170.614,195.913 170.695 M201.933 170.765 C 201.860 170.966,181.370 191.680,156.400 216.796 C 131.430 241.912,110.937 262.744,110.860 263.088 C 110.680 263.889,135.918 289.200,136.895 289.200 C 137.292 289.200,157.399 269.398,183.198 243.600 C 208.280 218.520,228.884 198.000,228.985 198.000 C 229.087 198.000,229.229 199.665,229.302 201.700 L 229.434 205.400 229.517 201.300 C 229.563 199.045,229.465 197.200,229.299 197.200 C 229.134 197.200,208.389 217.810,183.200 243.000 C 158.011 268.190,137.130 288.800,136.798 288.800 C 136.013 288.800,111.200 263.982,111.200 263.196 C 111.200 262.867,121.742 252.068,134.626 239.199 C 167.728 206.134,202.973 170.400,202.482 170.400 C 202.254 170.400,202.007 170.564,201.933 170.765 M188.700 171.089 C 189.415 171.178,190.585 171.178,191.300 171.089 C 192.015 171.001,191.430 170.928,190.000 170.928 C 188.570 170.928,187.985 171.001,188.700 171.089 M272.046 174.867 C 272.021 175.234,271.896 175.864,271.770 176.267 C 271.552 176.962,271.563 176.963,271.997 176.287 C 272.248 175.896,272.373 175.266,272.273 174.887 C 272.111 174.268,272.088 174.266,272.046 174.867 M271.246 177.667 C 271.221 178.034,271.096 178.664,270.970 179.067 C 270.752 179.762,270.763 179.763,271.197 179.087 C 271.448 178.696,271.573 178.066,271.473 177.687 C 271.311 177.068,271.288 177.066,271.246 177.667 M269.056 186.084 C 268.921 186.588,268.828 187.450,268.849 188.000 C 268.872 188.589,269.031 188.271,269.236 187.225 C 269.603 185.352,269.473 184.527,269.056 186.084 M268.101 191.800 C 268.105 192.680,268.187 192.993,268.283 192.495 C 268.379 191.998,268.375 191.278,268.275 190.895 C 268.175 190.513,268.096 190.920,268.101 191.800 M267.320 197.200 C 267.320 198.410,267.395 198.905,267.487 198.300 C 267.578 197.695,267.578 196.705,267.487 196.100 C 267.395 195.495,267.320 195.990,267.320 197.200 M266.893 200.800 C 266.893 201.570,266.975 201.885,267.076 201.500 C 267.176 201.115,267.176 200.485,267.076 200.100 C 266.975 199.715,266.893 200.030,266.893 200.800 M266.567 210.200 C 266.567 214.380,266.626 216.036,266.698 213.879 C 266.771 211.723,266.770 208.303,266.698 206.279 C 266.625 204.256,266.566 206.020,266.567 210.200 M229.346 218.200 C 229.347 220.400,229.414 221.249,229.495 220.087 C 229.576 218.924,229.576 217.124,229.493 216.087 C 229.411 215.049,229.345 216.000,229.346 218.200 M267.309 222.400 C 267.309 223.390,267.387 223.795,267.482 223.300 C 267.578 222.805,267.578 221.995,267.482 221.500 C 267.387 221.005,267.309 221.410,267.309 222.400 M230.114 226.600 C 230.117 227.700,230.195 228.103,230.287 227.495 C 230.379 226.886,230.377 225.986,230.282 225.495 C 230.187 225.003,230.111 225.500,230.114 226.600 M268.064 226.800 C 268.048 227.350,268.301 228.700,268.625 229.800 C 269.032 231.178,269.150 231.365,269.005 230.400 C 268.596 227.675,268.093 225.753,268.064 226.800 M230.828 231.833 C 230.844 232.475,231.016 233.360,231.210 233.800 C 231.447 234.334,231.486 234.002,231.327 232.800 C 231.046 230.680,230.788 230.180,230.828 231.833 M269.444 233.000 C 269.773 234.471,270.002 234.790,269.994 233.767 C 269.991 233.345,269.805 232.730,269.582 232.400 C 269.285 231.962,269.248 232.124,269.444 233.000 M231.654 235.640 C 231.625 236.212,231.765 237.202,231.967 237.840 C 232.169 238.478,232.448 239.516,232.586 240.147 C 232.725 240.778,232.919 241.215,233.016 241.117 C 233.113 241.020,232.941 239.964,232.633 238.770 C 232.324 237.577,231.991 236.150,231.891 235.600 L 231.709 234.600 231.654 235.640 M270.236 235.801 C 270.578 237.166,272.540 241.827,272.255 240.600 C 271.998 239.488,270.369 235.043,270.131 234.801 C 270.023 234.691,270.070 235.141,270.236 235.801 M273.007 243.079 C 273.607 244.514,274.000 245.162,274.000 244.716 C 274.000 244.284,272.785 241.600,272.589 241.600 C 272.479 241.600,272.667 242.266,273.007 243.079 M233.848 244.600 C 233.991 245.260,234.266 246.070,234.459 246.400 C 234.684 246.784,234.718 246.568,234.552 245.800 C 234.409 245.140,234.134 244.330,233.941 244.000 C 233.716 243.616,233.682 243.832,233.848 244.600 M275.040 247.202 C 275.639 248.303,276.193 249.140,276.271 249.063 C 276.443 248.890,274.408 245.200,274.141 245.200 C 274.036 245.200,274.440 246.101,275.040 247.202 M235.616 249.800 C 235.589 250.355,238.867 258.466,239.046 258.287 C 239.126 258.208,238.391 256.175,237.413 253.771 C 236.435 251.367,235.627 249.580,235.616 249.800 M277.445 251.500 C 278.039 252.545,278.895 253.760,279.347 254.200 L 280.170 255.000 279.553 254.200 C 279.213 253.760,278.447 252.545,277.851 251.500 C 277.254 250.455,276.676 249.600,276.566 249.600 C 276.456 249.600,276.852 250.455,277.445 251.500 M280.800 256.400 C 281.270 257.060,281.744 257.600,281.854 257.600 C 281.964 257.600,281.670 257.060,281.200 256.400 C 280.730 255.740,280.256 255.200,280.146 255.200 C 280.036 255.200,280.330 255.740,280.800 256.400 M285.181 261.875 C 285.903 262.797,286.743 263.646,287.047 263.763 C 288.229 264.216,287.191 265.406,274.500 278.149 C 267.295 285.384,261.670 291.153,262.000 290.970 C 262.921 290.458,287.786 265.216,287.902 264.675 C 287.958 264.414,287.073 263.300,285.936 262.200 C 283.888 260.220,283.881 260.217,285.181 261.875 M240.400 261.347 C 240.400 261.780,242.388 265.600,242.613 265.600 C 242.723 265.600,242.339 264.655,241.759 263.500 C 240.643 261.279,240.400 260.894,240.400 261.347 M242.800 266.112 C 242.800 266.478,245.441 270.880,246.213 271.800 C 246.843 272.550,246.843 272.531,246.221 271.482 C 245.857 270.868,245.009 269.428,244.337 268.282 C 243.026 266.049,242.800 265.729,242.800 266.112 M248.436 275.300 C 249.151 276.345,249.801 277.200,249.882 277.200 C 250.153 277.200,249.246 275.808,248.188 274.600 C 247.392 273.692,247.452 273.862,248.436 275.300 M250.989 279.000 C 252.650 281.322,256.405 286.000,256.608 286.000 C 256.804 286.000,250.951 278.414,250.281 277.800 C 250.041 277.580,250.359 278.120,250.989 279.000 M257.200 286.648 C 257.200 286.858,258.145 287.923,259.300 289.015 L 261.400 291.000 259.400 288.808 C 258.300 287.603,257.355 286.538,257.300 286.442 C 257.245 286.345,257.200 286.438,257.200 286.648 " stroke="none" fill="#90be54" fill-rule="evenodd"></path><path id="path4" d="M275.600 124.200 C 282.307 130.910,287.885 136.400,287.995 136.400 C 288.105 136.400,282.707 130.910,276.000 124.200 C 269.293 117.490,263.715 112.000,263.605 112.000 C 263.495 112.000,268.893 117.490,275.600 124.200 M121.998 125.500 L 109.400 138.200 122.100 125.602 C 133.903 113.895,134.980 112.800,134.698 112.800 C 134.641 112.800,128.926 118.515,121.998 125.500 M138.137 115.288 C 139.468 116.547,140.646 117.488,140.754 117.379 C 140.863 117.270,140.513 116.876,139.976 116.502 C 139.439 116.128,138.261 115.187,137.359 114.411 C 136.456 113.635,136.806 114.030,138.137 115.288 M256.400 115.200 C 254.750 116.058,253.539 116.769,253.710 116.780 C 254.135 116.807,259.600 114.038,259.600 113.795 C 259.600 113.525,259.732 113.467,256.400 115.200 M141.397 117.995 C 141.678 118.449,146.029 121.562,147.800 122.574 C 148.987 123.253,148.989 123.253,148.012 122.530 C 144.447 119.894,141.191 117.661,141.397 117.995 M242.853 121.453 C 242.113 121.776,241.601 122.134,241.716 122.249 C 241.831 122.364,242.616 122.093,243.462 121.647 C 245.235 120.711,244.841 120.586,242.853 121.453 M149.200 123.399 C 149.200 123.665,156.449 127.285,156.626 127.107 C 156.704 127.029,155.066 126.119,152.984 125.085 C 150.903 124.051,149.200 123.292,149.200 123.399 M231.200 126.000 C 230.667 126.345,230.667 126.388,231.200 126.388 C 231.530 126.388,232.070 126.213,232.400 126.000 C 232.933 125.655,232.933 125.612,232.400 125.612 C 232.070 125.612,231.530 125.787,231.200 126.000 M228.800 126.800 C 228.267 127.145,228.267 127.188,228.800 127.188 C 229.130 127.188,229.670 127.013,230.000 126.800 C 230.533 126.455,230.533 126.412,230.000 126.412 C 229.670 126.412,229.130 126.587,228.800 126.800 M226.400 127.600 C 225.867 127.945,225.867 127.988,226.400 127.988 C 226.730 127.988,227.270 127.813,227.600 127.600 C 228.133 127.255,228.133 127.212,227.600 127.212 C 227.270 127.212,226.730 127.387,226.400 127.600 M223.600 128.400 C 222.805 128.914,223.804 128.914,225.000 128.400 L 225.800 128.056 225.000 128.034 C 224.560 128.022,223.930 128.187,223.600 128.400 M221.000 129.200 C 220.496 129.417,220.422 129.544,220.800 129.544 C 221.130 129.544,221.760 129.389,222.200 129.200 C 222.704 128.983,222.778 128.856,222.400 128.856 C 222.070 128.856,221.440 129.011,221.000 129.200 M217.800 130.000 C 217.296 130.217,217.222 130.344,217.600 130.344 C 217.930 130.344,218.560 130.189,219.000 130.000 C 219.504 129.783,219.578 129.656,219.200 129.656 C 218.870 129.656,218.240 129.811,217.800 130.000 M166.000 130.800 C 166.330 131.013,166.870 131.188,167.200 131.188 C 167.733 131.188,167.733 131.145,167.200 130.800 C 166.870 130.587,166.330 130.412,166.000 130.412 C 165.467 130.412,165.467 130.455,166.000 130.800 M214.400 130.800 C 213.605 131.314,214.604 131.314,215.800 130.800 L 216.600 130.456 215.800 130.434 C 215.360 130.422,214.730 130.587,214.400 130.800 M169.000 131.600 C 169.440 131.789,170.160 131.944,170.600 131.944 L 171.400 131.944 170.600 131.600 C 170.160 131.411,169.440 131.256,169.000 131.256 L 168.200 131.256 169.000 131.600 M211.000 131.600 C 210.496 131.817,210.422 131.944,210.800 131.944 C 211.130 131.944,211.760 131.789,212.200 131.600 C 212.704 131.383,212.778 131.256,212.400 131.256 C 212.070 131.256,211.440 131.411,211.000 131.600 M172.800 132.400 C 173.350 132.576,174.160 132.726,174.600 132.732 L 175.400 132.744 174.600 132.400 C 174.160 132.211,173.350 132.062,172.800 132.068 L 171.800 132.080 172.800 132.400 M206.400 132.400 L 205.400 132.720 206.400 132.720 C 206.950 132.720,207.850 132.576,208.400 132.400 L 209.400 132.080 208.400 132.080 C 207.850 132.080,206.950 132.224,206.400 132.400 M178.200 133.223 C 179.080 133.405,180.340 133.542,181.000 133.527 C 181.900 133.507,181.750 133.420,180.400 133.180 C 177.986 132.750,176.094 132.787,178.200 133.223 M199.600 133.200 L 197.400 133.470 199.600 133.487 C 200.810 133.497,202.340 133.368,203.000 133.200 L 204.200 132.895 203.000 132.913 C 202.340 132.922,200.810 133.052,199.600 133.200 M187.100 133.895 C 188.255 133.976,190.145 133.976,191.300 133.895 C 192.455 133.814,191.510 133.748,189.200 133.748 C 186.890 133.748,185.945 133.814,187.100 133.895 M109.600 138.586 C 109.600 138.908,110.723 139.995,114.306 143.141 C 118.455 146.784,117.876 145.948,113.400 141.831 C 111.310 139.909,109.600 138.449,109.600 138.586 M284.179 144.042 C 283.173 146.045,282.414 147.748,282.493 147.826 C 282.571 147.904,283.481 146.266,284.515 144.184 C 285.549 142.103,286.308 140.400,286.201 140.400 C 286.095 140.400,285.185 142.039,284.179 144.042 M117.740 145.903 C 117.896 146.156,118.591 146.767,119.284 147.260 C 119.977 147.754,120.417 147.950,120.260 147.697 C 120.104 147.444,119.409 146.833,118.716 146.340 C 118.023 145.846,117.583 145.650,117.740 145.903 M120.940 148.303 C 121.096 148.556,121.791 149.167,122.484 149.660 C 123.177 150.154,123.617 150.350,123.460 150.097 C 123.304 149.844,122.609 149.233,121.916 148.740 C 121.223 148.246,120.783 148.050,120.940 148.303 M127.000 152.596 C 127.894 153.339,130.428 154.709,129.800 154.110 C 129.580 153.900,128.680 153.324,127.800 152.830 C 126.920 152.335,126.560 152.230,127.000 152.596 M131.200 155.167 C 132.163 155.952,132.800 156.208,132.800 155.810 C 132.800 155.706,132.215 155.335,131.500 154.986 L 130.200 154.352 131.200 155.167 M133.200 156.179 C 133.200 156.289,133.740 156.659,134.400 157.000 C 135.060 157.341,135.600 157.531,135.600 157.421 C 135.600 157.311,135.060 156.941,134.400 156.600 C 133.740 156.259,133.200 156.069,133.200 156.179 M156.400 166.000 C 156.730 166.213,157.360 166.378,157.800 166.366 L 158.600 166.344 157.800 166.000 C 156.604 165.486,155.605 165.486,156.400 166.000 M159.400 166.800 C 159.840 166.989,160.560 167.138,161.000 167.132 C 161.643 167.123,161.604 167.057,160.800 166.800 C 159.432 166.362,158.381 166.362,159.400 166.800 M163.000 167.600 C 163.440 167.789,164.160 167.938,164.600 167.932 C 165.243 167.923,165.204 167.857,164.400 167.600 C 163.032 167.162,161.981 167.162,163.000 167.600 M166.600 168.400 C 167.040 168.589,167.850 168.738,168.400 168.732 L 169.400 168.720 168.400 168.400 C 167.850 168.224,167.040 168.074,166.600 168.068 L 165.800 168.056 166.600 168.400 M171.800 169.200 C 172.460 169.368,173.450 169.505,174.000 169.505 C 174.892 169.505,174.870 169.472,173.800 169.200 C 173.140 169.032,172.150 168.895,171.600 168.895 C 170.708 168.895,170.730 168.928,171.800 169.200 M178.400 170.020 C 179.390 170.197,180.830 170.330,181.600 170.317 C 182.745 170.297,182.635 170.236,181.000 169.982 C 178.253 169.554,175.969 169.588,178.400 170.020 M198.600 170.028 C 197.540 170.236,198.058 170.272,200.134 170.134 C 203.091 169.937,203.245 169.967,202.858 170.663 C 202.633 171.068,181.918 191.920,156.824 216.999 C 131.731 242.079,111.200 262.780,111.200 263.002 C 111.200 263.525,136.479 288.800,137.003 288.800 C 137.222 288.800,158.101 268.100,183.400 242.800 C 208.699 217.500,229.535 196.800,229.702 196.800 C 229.868 196.800,229.924 198.375,229.825 200.300 C 229.675 203.236,229.701 203.446,229.984 201.600 C 230.501 198.223,230.472 196.400,229.899 196.400 C 229.624 196.400,208.699 217.100,183.400 242.400 C 158.101 267.700,137.220 288.400,136.998 288.400 C 136.477 288.400,111.600 263.522,111.600 263.000 C 111.600 262.783,132.300 241.902,157.600 216.598 C 182.900 191.295,203.600 170.369,203.600 170.096 C 203.600 169.541,201.239 169.509,198.600 170.028 M273.000 170.400 C 272.850 170.873,272.817 171.350,272.927 171.460 C 273.037 171.570,273.250 171.273,273.400 170.800 C 273.550 170.327,273.583 169.850,273.473 169.740 C 273.363 169.630,273.150 169.927,273.000 170.400 M269.829 181.029 C 269.681 181.615,269.651 182.184,269.761 182.294 C 269.871 182.404,270.081 182.015,270.229 181.429 C 270.376 180.842,270.406 180.273,270.296 180.163 C 270.186 180.053,269.976 180.442,269.829 181.029 M269.000 184.400 C 268.848 185.091,268.814 185.747,268.924 185.857 C 269.034 185.967,269.248 185.491,269.400 184.800 C 269.552 184.109,269.586 183.453,269.476 183.343 C 269.366 183.233,269.152 183.709,269.000 184.400 M268.250 188.050 C 267.917 189.717,268.240 190.040,268.600 188.400 C 268.752 187.709,268.793 187.059,268.691 186.958 C 268.589 186.856,268.391 187.347,268.250 188.050 M267.400 192.400 C 267.246 193.310,267.211 194.144,267.321 194.254 C 267.431 194.364,267.646 193.710,267.800 192.800 C 267.954 191.890,267.989 191.056,267.879 190.946 C 267.769 190.836,267.554 191.490,267.400 192.400 M266.587 198.187 C 266.431 199.644,266.393 200.926,266.503 201.036 C 266.613 201.146,266.831 200.044,266.987 198.587 C 267.143 197.129,267.180 195.847,267.070 195.737 C 266.960 195.627,266.743 196.729,266.587 198.187 M266.160 209.800 C 266.161 213.100,266.222 214.397,266.298 212.682 C 266.373 210.967,266.372 208.267,266.297 206.682 C 266.221 205.097,266.159 206.500,266.160 209.800 M229.630 217.833 C 229.646 219.135,229.810 221.010,229.995 222.000 C 230.225 223.230,230.262 222.534,230.113 219.800 C 229.870 215.344,229.584 214.180,229.630 217.833 M266.447 220.033 C 266.473 220.785,266.641 221.940,266.820 222.600 C 267.035 223.389,267.070 222.978,266.923 221.400 C 266.677 218.755,266.373 217.881,266.447 220.033 M267.280 225.400 C 267.280 225.840,267.424 226.650,267.600 227.200 C 267.854 227.992,267.920 228.033,267.920 227.400 C 267.920 226.960,267.776 226.150,267.600 225.600 C 267.346 224.808,267.280 224.767,267.280 225.400 M230.493 226.200 C 230.494 226.860,230.632 227.940,230.800 228.600 C 231.223 230.263,231.242 228.626,230.823 226.600 C 230.545 225.255,230.492 225.191,230.493 226.200 M268.056 229.400 C 268.056 229.840,268.211 230.560,268.400 231.000 L 268.744 231.800 268.744 231.000 C 268.744 230.560,268.589 229.840,268.400 229.400 L 268.056 228.600 268.056 229.400 M231.268 231.600 C 231.262 232.150,231.411 232.960,231.600 233.400 L 231.944 234.200 231.932 233.400 C 231.926 232.960,231.776 232.150,231.600 231.600 L 231.280 230.600 231.268 231.600 M232.068 235.600 C 232.062 236.150,232.211 236.960,232.400 237.400 L 232.744 238.200 232.732 237.400 C 232.726 236.960,232.576 236.150,232.400 235.600 L 232.080 234.600 232.068 235.600 M232.812 239.200 C 232.812 239.530,232.987 240.070,233.200 240.400 C 233.545 240.933,233.588 240.933,233.588 240.400 C 233.588 240.070,233.413 239.530,233.200 239.200 C 232.855 238.667,232.812 238.667,232.812 239.200 M233.656 242.000 C 233.656 242.330,233.811 242.960,234.000 243.400 C 234.217 243.904,234.344 243.978,234.344 243.600 C 234.344 243.270,234.189 242.640,234.000 242.200 C 233.783 241.696,233.656 241.622,233.656 242.000 M272.800 243.820 C 272.800 244.272,274.066 246.467,274.231 246.302 C 274.420 246.114,273.247 243.600,272.971 243.600 C 272.877 243.600,272.800 243.699,272.800 243.820 M275.786 249.500 C 276.135 250.215,276.506 250.800,276.610 250.800 C 277.008 250.800,276.752 250.163,275.967 249.200 L 275.152 248.200 275.786 249.500 M277.467 252.406 C 277.859 253.070,278.598 254.105,279.110 254.706 C 279.621 255.308,279.375 254.765,278.563 253.500 C 277.024 251.103,276.228 250.307,277.467 252.406 M280.791 257.188 C 281.257 257.841,281.842 258.502,282.091 258.656 C 282.341 258.811,282.041 258.276,281.425 257.468 C 280.088 255.715,279.584 255.492,280.791 257.188 M283.918 261.100 C 284.794 262.145,285.930 263.360,286.441 263.800 C 286.953 264.240,286.433 263.529,285.286 262.220 C 284.139 260.911,283.200 259.696,283.200 259.520 C 283.200 259.344,283.003 259.200,282.763 259.200 C 282.522 259.200,283.042 260.055,283.918 261.100 M243.000 265.600 C 243.341 266.260,243.711 266.800,243.821 266.800 C 243.931 266.800,243.741 266.260,243.400 265.600 C 243.059 264.940,242.689 264.400,242.579 264.400 C 242.469 264.400,242.659 264.940,243.000 265.600 M274.398 277.900 L 261.800 290.600 274.500 278.002 C 281.485 271.074,287.200 265.359,287.200 265.302 C 287.200 265.020,286.105 266.097,274.398 277.900 M244.015 267.400 C 244.017 267.620,244.386 268.250,244.836 268.800 C 245.379 269.464,245.515 269.531,245.240 269.000 C 244.566 267.695,244.012 266.972,244.015 267.400 M246.008 270.800 C 246.819 272.369,251.137 278.714,251.580 278.988 C 251.921 279.199,246.265 270.560,245.695 270.000 C 245.583 269.890,245.724 270.250,246.008 270.800 M252.438 280.300 C 255.666 284.517,260.400 289.864,260.400 289.293 C 260.400 289.104,259.841 288.421,259.159 287.775 C 258.476 287.129,256.654 285.025,255.110 283.100 C 253.567 281.175,252.213 279.600,252.103 279.600 C 251.992 279.600,252.143 279.915,252.438 280.300 " stroke="none" fill="#5c7c38" fill-rule="evenodd"></path></g></svg>